<?xml version="1.0" encoding="UTF-8" standalone="no"?>
<svg
   width="16"
   height="16"
   version="1.1"
   id="svg15"
   sodipodi:docname="close-hover.svg"
   inkscape:version="1.2.2 (b0a8486541, 2022-12-01)"
   xmlns:inkscape="http://www.inkscape.org/namespaces/inkscape"
   xmlns:sodipodi="http://sodipodi.sourceforge.net/DTD/sodipodi-0.dtd"
   xmlns="http://www.w3.org/2000/svg"
   xmlns:svg="http://www.w3.org/2000/svg">
  <defs
     id="defs19" />
  <sodipodi:namedview
     id="namedview17"
     pagecolor="#ffffff"
     bordercolor="#000000"
     borderopacity="0.25"
     inkscape:showpageshadow="2"
     inkscape:pageopacity="0.0"
     inkscape:pagecheckerboard="0"
     inkscape:deskcolor="#d1d1d1"
     showgrid="false"
     inkscape:zoom="15.382716"
     inkscape:cx="40.532504"
     inkscape:cy="7.9959872"
     inkscape:window-width="1920"
     inkscape:window-height="976"
     inkscape:window-x="0"
     inkscape:window-y="32"
     inkscape:window-maximized="1"
     inkscape:current-layer="svg15" />
  <g
     id="hover-center"
     transform="matrix(1.1034473,0,0,1.1034142,48.022867,-7.7844324)">
    <path
       d="m -36.271,7.3051 c -3.866,0 -7,3.134 -7,7 0,3.866 3.134,7 7,7 3.866,0 7,-3.134 7,-7 0,-3.866 -3.134,-7 -7,-7 z"
       fill="#d41919"
       stroke="#951212"
       stroke-width="0.5"
       id="path3" />
    <path
       d="m -39.271,11.225 h 0.75 c 0.008,-9e-5 0.0156,-3.5e-4 0.0234,0 0.19122,0.008 0.3824,0.0964 0.51563,0.23437 l 1.7109,1.7109 1.7344,-1.7109 c 0.19922,-0.17287 0.335,-0.22912 0.51562,-0.23437 h 0.75 v 0.75 c 0,0.21485 -0.0257,0.41298 -0.1875,0.5625 l -1.7109,1.7109 1.6875,1.6875 c 0.14114,0.14113 0.21093,0.34009 0.21093,0.53907 v 0.75 h -0.75 c -0.19897,-10e-6 -0.39793,-0.0698 -0.53906,-0.21094 l -1.7109,-1.7109 -1.7109,1.7109 c -0.14113,0.14114 -0.3401,0.21094 -0.53907,0.21094 h -0.75 v -0.75 c 0,-0.19897 0.0698,-0.39794 0.21094,-0.53907 l 1.7109,-1.6875 -1.7109,-1.7109 c -0.15805,-0.14598 -0.22737,-0.35194 -0.21094,-0.5625 v -0.75 z"
       color="#bebebe"
       enable-background="new"
       opacity="0.5"
       style="text-indent:0;text-decoration-line:none;text-transform:none"
       id="path5" />
  </g>
</svg>
